<svg xmlns="http://www.w3.org/2000/svg" viewBox="0 0 87.52 195"><defs><style>.cls-1{fill:#10aa50;}.cls-2{fill:#b8c4c2;}.cls-3{fill:#12924f;}</style></defs><title>leaf</title><g id="Layer_2" data-name="Layer 2"><g id="Layer_1-2" data-name="Layer 1"><path class="cls-1" d="M86,77.6C75.7,32.28,54.28,20.22,48.82,11.69A97,97,0,0,1,42.85,0c-.29,4-.82,6.56-4.24,9.62C31.74,15.74,2.56,39.52.1,91c-2.29,48,35.3,77.62,40.27,80.68,3.82,1.87,8.46,0,10.74-1.69C69.21,157.57,94,124.42,86,77.6"/><path class="cls-2" d="M44.41,146.12c-.95,11.88-1.62,18.8-4,25.58,0,0,1.58,11.31,2.67,23.29H47a217.84,217.84,0,0,1,4.27-25.09C46.19,167.41,44.6,156.54,44.41,146.12Z"/><path class="cls-3" d="M51.25,169.91h0c-5.12-2.37-6.6-13.46-6.83-23.79a488.31,488.31,0,0,0,1.1-51.23c-.27-9,.13-83-2.21-93.87a91.39,91.39,0,0,0,5.52,10.67C54.29,20.22,75.7,32.29,86,77.6,94,124.3,69.34,157.4,51.25,169.91Z"/></g></g></svg>